<svg xmlns="http://www.w3.org/2000/svg" viewBox="0 0 1100 650" role="img" aria-labelledby="title desc"><title id="title">项目数据、模型与部署流程</title><desc id="desc">ESOL feeds training. AqSolDB feeds external evaluation only. Saved models go through GitHub to Streamlit; PubChem supplies structures for inference.</desc><defs><marker id="arrow" viewBox="0 0 10 10" refX="9" refY="5" markerWidth="7" markerHeight="7" orient="auto-start-reverse"><path d="M0 0L10 5L0 10" fill="none" stroke="#748C7C" stroke-width="1.5"/></marker></defs><rect width="1100" height="650" rx="8" fill="#FAF9F5"/><path d="M345 105H385" fill="none" stroke="#748C7C" stroke-width="1.7" marker-end="url(#arrow)"/><path d="M695 105H735" fill="none" stroke="#748C7C" stroke-width="1.7" marker-end="url(#arrow)"/><path d="M890 155V179H195V205" fill="none" stroke="#748C7C" stroke-width="1.7" marker-end="url(#arrow)"/><path d="M545 179V205" fill="none" stroke="#748C7C" stroke-width="1.7" marker-end="url(#arrow)"/><path d="M890 179V205" fill="none" stroke="#748C7C" stroke-width="1.7" marker-end="url(#arrow)"/><path d="M195 315V333H545V355" fill="none" stroke="#748C7C" stroke-width="1.7" marker-end="url(#arrow)"/><path d="M545 315V355" fill="none" stroke="#748C7C" stroke-width="1.7" marker-end="url(#arrow)"/><path d="M890 315V333H545" fill="none" stroke="#748C7C" stroke-width="1.7" marker-end="url(#arrow)"/><path d="M345 405H385" fill="none" stroke="#748C7C" stroke-width="1.7" marker-end="url(#arrow)"/><path d="M695 405H735" fill="none" stroke="#748C7C" stroke-width="1.7" marker-end="url(#arrow)"/><path d="M890 465V500H545V505" fill="none" stroke="#748C7C" stroke-width="1.7" marker-end="url(#arrow)"/><path d="M345 555H385" fill="none" stroke="#748C7C" stroke-width="1.7" marker-end="url(#arrow)"/><path d="M695 555H735" fill="none" stroke="#748C7C" stroke-width="1.7" marker-end="url(#arrow)"/><rect x="35" y="55" width="310" height="110" rx="6" fill="#FFFFFF" stroke="#D6DDD4"/><rect x="35" y="55" width="4" height="110" rx="2" fill="#246655"/><g font-family="Noto Sans CJK SC, PingFang SC, Microsoft YaHei, sans-serif"><text x="54" y="78" font-size="9.5" letter-spacing=".5" fill="#246655">数据来源</text><text x="54" y="108" font-size="17" font-weight="600" fill="#24332F">ESOL · 实验水溶解度</text><text x="54" y="138" font-size="12" fill="#596C63">训练与留出基准</text></g><rect x="385" y="55" width="310" height="110" rx="6" fill="#FFFFFF" stroke="#D6DDD4"/><rect x="385" y="55" width="4" height="110" rx="2" fill="#246655"/><g font-family="Noto Sans CJK SC, PingFang SC, Microsoft YaHei, sans-serif"><text x="404" y="78" font-size="9.5" letter-spacing=".5" fill="#246655">Anaconda · RDKit / pandas</text><text x="404" y="108" font-size="17" font-weight="600" fill="#24332F">清洗与结构去重</text><text x="404" y="138" font-size="12" fill="#596C63">1128 → 1106 条记录</text></g><rect x="735" y="55" width="310" height="110" rx="6" fill="#FFFFFF" stroke="#D6DDD4"/><rect x="735" y="55" width="4" height="110" rx="2" fill="#246655"/><g font-family="Noto Sans CJK SC, PingFang SC, Microsoft YaHei, sans-serif"><text x="754" y="78" font-size="9.5" letter-spacing=".5" fill="#246655">Anaconda · scikit-learn</text><text x="754" y="108" font-size="17" font-weight="600" fill="#24332F">固定骨架分组划分</text><text x="754" y="138" font-size="12" fill="#596C63">920 训练 / 186 留出</text></g><rect x="35" y="205" width="310" height="110" rx="6" fill="#FFFFFF" stroke="#D6DDD4"/><rect x="35" y="205" width="4" height="110" rx="2" fill="#246655"/><g font-family="Noto Sans CJK SC, PingFang SC, Microsoft YaHei, sans-serif"><text x="54" y="228" font-size="9.5" letter-spacing=".5" fill="#246655">920 条训练记录</text><text x="54" y="258" font-size="17" font-weight="600" fill="#24332F">Random Forest</text><text x="54" y="288" font-size="12" fill="#596C63">七个描述符 · 点估计</text></g><rect x="385" y="205" width="310" height="110" rx="6" fill="#FFFFFF" stroke="#D6DDD4"/><rect x="385" y="205" width="4" height="110" rx="2" fill="#246655"/><g font-family="Noto Sans CJK SC, PingFang SC, Microsoft YaHei, sans-serif"><text x="404" y="228" font-size="9.5" letter-spacing=".5" fill="#246655">920 条训练记录</text><text x="404" y="258" font-size="17" font-weight="600" fill="#24332F">GINE 图神经网络</text><text x="404" y="288" font-size="12" fill="#596C63">原子与键 · 点估计</text></g><rect x="735" y="205" width="310" height="110" rx="6" fill="#FFFFFF" stroke="#D6DDD4"/><rect x="735" y="205" width="4" height="110" rx="2" fill="#246655"/><g font-family="Noto Sans CJK SC, PingFang SC, Microsoft YaHei, sans-serif"><text x="754" y="228" font-size="9.5" letter-spacing=".5" fill="#246655">仅使用训练池</text><text x="754" y="258" font-size="17" font-weight="600" fill="#24332F">CQR 独立区间模型</text><text x="754" y="288" font-size="12" fill="#596C63">459 拟合 / 461 校准</text></g><rect x="35" y="355" width="310" height="110" rx="6" fill="#FFFFFF" stroke="#D6DDD4"/><rect x="35" y="355" width="4" height="110" rx="2" fill="#B76547"/><g font-family="Noto Sans CJK SC, PingFang SC, Microsoft YaHei, sans-serif"><text x="54" y="378" font-size="9.5" letter-spacing=".5" fill="#B76547">不参与训练或校准</text><text x="54" y="408" font-size="17" font-weight="600" fill="#24332F">AqSolDB · 外部评价</text><text x="54" y="438" font-size="12" fill="#596C63">筛查后 6578 条记录</text></g><rect x="385" y="355" width="310" height="110" rx="6" fill="#FFFFFF" stroke="#D6DDD4"/><rect x="385" y="355" width="4" height="110" rx="2" fill="#246655"/><g font-family="Noto Sans CJK SC, PingFang SC, Microsoft YaHei, sans-serif"><text x="404" y="378" font-size="9.5" letter-spacing=".5" fill="#246655">Anaconda · 保存结果表</text><text x="404" y="408" font-size="17" font-weight="600" fill="#24332F">评价与失败分析</text><text x="404" y="438" font-size="12" fill="#596C63">留出 / 外部 · 误差与覆盖率</text></g><rect x="735" y="355" width="310" height="110" rx="6" fill="#FFFFFF" stroke="#D6DDD4"/><rect x="735" y="355" width="4" height="110" rx="2" fill="#246655"/><g font-family="Noto Sans CJK SC, PingFang SC, Microsoft YaHei, sans-serif"><text x="754" y="378" font-size="9.5" letter-spacing=".5" fill="#246655">GitHub</text><text x="754" y="408" font-size="17" font-weight="600" fill="#24332F">保存代码与模型</text><text x="754" y="438" font-size="12" fill="#596C63">文件、配置、报告与版本证据</text></g><rect x="35" y="505" width="310" height="110" rx="6" fill="#FFFFFF" stroke="#D6DDD4"/><rect x="35" y="505" width="4" height="110" rx="2" fill="#B76547"/><g font-family="Noto Sans CJK SC, PingFang SC, Microsoft YaHei, sans-serif"><text x="54" y="528" font-size="9.5" letter-spacing=".5" fill="#B76547">在线查询 · 不提供预测标签</text><text x="54" y="558" font-size="17" font-weight="600" fill="#24332F">PubChem · 结构检索</text><text x="54" y="588" font-size="12" fill="#596C63">名称 / CID → 化学结构</text></g><rect x="385" y="505" width="310" height="110" rx="6" fill="#FFFFFF" stroke="#D6DDD4"/><rect x="385" y="505" width="4" height="110" rx="2" fill="#246655"/><g font-family="Noto Sans CJK SC, PingFang SC, Microsoft YaHei, sans-serif"><text x="404" y="528" font-size="9.5" letter-spacing=".5" fill="#246655">Streamlit Community Cloud</text><text x="404" y="558" font-size="17" font-weight="600" fill="#24332F">网页推理</text><text x="404" y="588" font-size="12" fill="#596C63">RDKit 检查 → 加载保存模型</text></g><rect x="735" y="505" width="310" height="110" rx="6" fill="#FFFFFF" stroke="#D6DDD4"/><rect x="735" y="505" width="4" height="110" rx="2" fill="#246655"/><g font-family="Noto Sans CJK SC, PingFang SC, Microsoft YaHei, sans-serif"><text x="754" y="528" font-size="9.5" letter-spacing=".5" fill="#246655">浏览器 · 中英共享同一模型</text><text x="754" y="558" font-size="17" font-weight="600" fill="#24332F">展示与导出</text><text x="754" y="588" font-size="12" fill="#596C63">结构 · 两个估计 · 区间 · CSV</text></g></svg>